<svg width="40" height="41" viewBox="0 0 40 41" fill="none" xmlns="http://www.w3.org/2000/svg">
<path d="M20.2156 1.88382C13.7785 1.87272 7.51275 5.2085 4.06322 11.1833C0.569075 17.2354 0.866497 24.4352 4.21462 30.0358C2.14993 24.8086 2.6247 18.1858 6.01634 12.3112C9.41009 6.43304 14.9142 2.70882 20.4768 1.88632C20.3897 1.88499 20.3026 1.88397 20.2156 1.88397V1.88382ZM20.2034 6.05882C15.2116 6.04999 10.354 8.63733 7.67892 13.2705C4.9697 17.9633 5.19814 23.5444 7.79376 27.8873C6.194 23.8342 6.56329 18.6991 9.19267 14.1447C11.8236 9.58764 16.0889 6.70014 20.4013 6.06108C20.3354 6.06007 20.2692 6.05874 20.2035 6.05874L20.2034 6.05882ZM20.1008 9.45475C16.3206 9.48397 12.6516 11.4555 10.6281 14.9601C7.59017 20.2222 9.39923 26.9708 14.6614 30.0089C19.9235 33.0472 26.6722 31.2403 29.7102 25.9783C32.7485 20.7161 30.9392 13.965 25.6771 10.9269C24.0327 9.97772 22.2435 9.50257 20.4672 9.45741C20.345 9.45429 20.2228 9.4539 20.1008 9.45491V9.45475ZM20.0667 10.9073L20.0179 13.2073C18.8232 13.22 17.6465 13.5263 16.5999 14.1008L15.4304 12.1648C16.8439 11.3585 18.4395 10.9257 20.0667 10.9074L20.0667 10.9073ZM36.1165 10.9172C38.1845 16.1455 37.7105 22.7719 34.3173 28.6492C30.9276 34.5203 25.4323 38.2431 19.8763 39.0715C26.397 39.1671 32.7757 35.8235 36.268 29.7746C39.763 23.721 39.4672 16.5186 36.1164 10.9173L36.1165 10.9172ZM22.7621 11.2687C23.509 11.4805 24.2434 11.7853 24.9473 12.1916C25.6623 12.6042 26.3211 13.1072 26.9076 13.6881L25.2035 15.3214C24.7566 14.8763 24.2535 14.4914 23.707 14.1765C23.2343 13.9028 22.7322 13.6833 22.2103 13.5222L22.7621 11.2687ZM32.5326 13.0633C34.1367 17.1177 33.7701 22.2576 31.1385 26.8156C28.5112 31.3662 24.2534 34.2523 19.9471 34.8967C25.002 34.9689 29.945 32.3762 32.6522 27.6873C35.363 22.992 35.132 17.4071 32.5327 13.0631L32.5326 13.0633ZM13.287 13.8323L14.8445 15.4557C14.4508 15.8704 14.1074 16.3301 13.8215 16.8252C13.5131 17.3599 13.2744 17.9317 13.111 18.5269L10.9358 17.9923C11.1533 17.1865 11.475 16.4125 11.8928 15.69C12.2807 15.0166 12.7487 14.3928 13.2868 13.8322L13.287 13.8323ZM28.5409 15.8512C29.3195 17.2639 29.7323 18.8556 29.7323 20.4704L27.3251 20.4191C27.3202 19.2583 27.0372 18.1156 26.4999 17.0866L28.5409 15.8512ZM10.6087 20.6705L12.8571 20.7194C12.9035 21.895 13.2344 23.0419 13.8215 24.0616L11.8806 25.236C11.0812 23.8446 10.6438 22.2748 10.6087 20.6705ZM27.01 22.5627L29.3488 23.1363C29.1378 23.8582 28.8386 24.5673 28.4455 25.2482C28.0228 25.9802 27.5189 26.6357 26.9513 27.2087L25.2887 25.4752C25.7009 25.0486 26.0593 24.5731 26.3556 24.0592C26.6349 23.5756 26.8525 23.0748 27.0099 22.5626L27.01 22.5627ZM15.1838 25.7659C15.5687 26.1198 15.9986 26.4358 16.4705 26.708C17.005 27.0173 17.5768 27.2569 18.172 27.421L17.6178 29.6793C16.8393 29.4625 16.0912 29.1483 15.3913 28.7443C14.7025 28.3466 14.0816 27.8771 13.5335 27.3502L15.1838 25.7659ZM23.5773 26.7838L24.8127 28.8273C23.4216 29.599 21.8601 30.0119 20.2693 30.0284L20.3181 27.675C21.4594 27.6379 22.576 27.3327 23.5774 26.7839L23.5773 26.7838Z" fill="#CF9031"/>
</svg>
