<svg width="40" height="41" viewBox="0 0 40 41" fill="none" xmlns="http://www.w3.org/2000/svg">
<path d="M8.40365 20.0264C8.23793 19.7393 7.96502 19.5299 7.64491 19.444C7.32481 19.3582 6.98371 19.403 6.69661 19.5686L2.81302 21.8084C2.44943 22.0167 2.13184 22.2966 1.8794 22.6311C1.62696 22.9655 1.44492 23.3477 1.34427 23.7545C1.1505 24.561 1.27798 25.4113 1.69974 26.1256L2.04036 26.7146C2.45503 27.4317 3.13741 27.9548 3.93756 28.1689C4.7377 28.3831 5.59014 28.2709 6.30755 27.8568L10.188 25.6201C10.3303 25.5381 10.455 25.4289 10.5551 25.2987C10.6552 25.1685 10.7286 25.0198 10.7712 24.8612C10.8138 24.7026 10.8247 24.5372 10.8033 24.3744C10.7819 24.2115 10.7287 24.0545 10.6466 23.9123L8.40365 20.0264Z" fill="#CF9031"/>
<path d="M29.9103 34.9326L22.5572 20.3389C22.5393 20.3032 22.5357 20.2621 22.5472 20.2239C22.5587 20.1857 22.5843 20.1533 22.6189 20.1334L23.2673 19.7592C23.4096 19.6772 23.5342 19.5679 23.6342 19.4376C23.7342 19.3074 23.8075 19.1587 23.85 19.0001C23.8926 18.8416 23.9034 18.6761 23.882 18.5134C23.8606 18.3506 23.8073 18.1936 23.7252 18.0514L20.0119 11.6194C19.9299 11.4771 19.8207 11.3523 19.6904 11.2523C19.5602 11.1522 19.4116 11.0788 19.253 11.0362C19.0944 10.9936 18.9289 10.9827 18.7661 11.0041C18.6033 11.0255 18.4463 11.0787 18.3041 11.1608L11.5556 15.0514C11.1994 15.2555 10.8872 15.5282 10.6371 15.8539C10.3869 16.1795 10.2039 16.5514 10.0986 16.9483C10.0269 17.1961 9.99088 17.4528 9.99156 17.7108C9.99625 18.3045 10.7103 19.4842 11.4072 20.7014C12.1564 22.01 12.9103 23.3483 13.465 23.6819C13.8181 23.8944 14.4416 24.0647 14.9658 24.0647H15.0314L8.83453 37.4709C8.76549 37.62 8.7265 37.7812 8.71979 37.9453C8.71309 38.1094 8.73879 38.2733 8.79545 38.4274C8.8521 38.5816 8.93858 38.7231 9.04996 38.8439C9.16133 38.9646 9.29541 39.0622 9.44453 39.1311C9.59365 39.2 9.75488 39.2388 9.91901 39.2453C10.0831 39.2519 10.247 39.226 10.4011 39.1692C10.5552 39.1124 10.6966 39.0257 10.8172 38.9142C10.9379 38.8027 11.0353 38.6686 11.1041 38.5194L18.4228 22.6873C18.4766 22.5702 18.5657 22.4727 18.6775 22.4084L20.1783 21.5428C20.1967 21.5323 20.2171 21.5256 20.2382 21.5232C20.2593 21.5208 20.2807 21.5228 20.301 21.5289C20.3213 21.535 20.3402 21.5453 20.3564 21.5589C20.3727 21.5726 20.3859 21.5895 20.3955 21.6084L27.6775 36.0616C27.7514 36.2082 27.8534 36.3388 27.9777 36.446C28.1021 36.5531 28.2463 36.6348 28.4022 36.6862C28.5581 36.7377 28.7226 36.7579 28.8864 36.7457C29.0501 36.7336 29.2098 36.6893 29.3564 36.6155C29.503 36.5416 29.6336 36.4396 29.7408 36.3152C29.848 36.1909 29.9296 36.0466 29.9811 35.8907C30.0325 35.7348 30.0527 35.5703 30.0406 35.4066C30.0284 35.2429 29.9842 35.0832 29.9103 34.9366V34.9326ZM38.2986 9.53734L34.6955 3.30765C34.2796 2.59166 33.5971 2.06953 32.7973 1.85548C31.9974 1.64142 31.1454 1.75288 30.4275 2.16546L23.1353 6.36703C22.779 6.57102 22.4667 6.84374 22.2166 7.16936C21.9665 7.49498 21.7835 7.86702 21.6783 8.2639C21.5748 8.59854 21.541 8.95085 21.5791 9.29906C21.715 10.285 22.5947 11.6741 23.6423 13.5092C24.7033 15.3631 25.9009 17.453 26.5275 17.9053C27.0572 18.2796 27.6898 18.4808 28.3384 18.4811C28.8848 18.4813 29.4216 18.3374 29.8947 18.0639L37.1884 13.86C37.5512 13.6521 37.8683 13.3731 38.1206 13.0396C38.3728 12.7061 38.5551 12.3251 38.6564 11.9194C38.8516 11.109 38.7232 10.2546 38.2986 9.53734Z" fill="#CF9031"/>
</svg>
