<svg width="34" height="25" viewBox="0 0 34 25" fill="none" xmlns="http://www.w3.org/2000/svg">
<path d="M12.0007 0.883789C8.90646 0.883789 5.939 2.11295 3.75107 4.30088C1.56315 6.4888 0.333984 9.45626 0.333984 12.5505C0.333984 15.6446 1.56315 18.6121 3.75107 20.8C5.939 22.988 8.90646 24.2171 12.0007 24.2171C13.734 24.2171 15.434 23.8171 17.0007 23.0838C18.5673 23.8171 20.2673 24.2171 22.0007 24.2171C25.0948 24.2171 28.0623 22.988 30.2502 20.8C32.4382 18.6121 33.6673 15.6446 33.6673 12.5505C33.6673 9.45626 32.4382 6.4888 30.2502 4.30088C28.0623 2.11295 25.0948 0.883789 22.0007 0.883789C20.2673 0.883789 18.5673 1.28379 17.0007 2.01712C15.434 1.28379 13.734 0.883789 12.0007 0.883789ZM12.0007 4.21712C12.5673 4.21712 13.1173 4.26712 13.6673 4.38379C11.534 6.56712 10.334 9.50046 10.334 12.5505C10.334 15.6005 11.534 18.5338 13.6673 20.7005C13.1173 20.8171 12.5673 20.8838 12.0007 20.8838C9.79051 20.8838 7.6709 20.0058 6.10809 18.443C4.54529 16.8802 3.66732 14.7606 3.66732 12.5505C3.66732 10.3403 4.54529 8.2207 6.10809 6.6579C7.6709 5.0951 9.79051 4.21712 12.0007 4.21712ZM22.0007 4.21712C24.2108 4.21712 26.3304 5.0951 27.8932 6.6579C29.456 8.2207 30.334 10.3403 30.334 12.5505C30.334 14.7606 29.456 16.8802 27.8932 18.443C26.3304 20.0058 24.2108 20.8838 22.0007 20.8838C21.434 20.8838 20.884 20.8338 20.334 20.7171C22.4673 18.5338 23.6673 15.6005 23.6673 12.5505C23.6673 9.50046 22.4673 6.56712 20.334 4.40046C20.884 4.28379 21.434 4.21712 22.0007 4.21712Z" fill="#CF9031"/>
</svg>
