<svg width="97" height="85" viewBox="0 0 97 85" fill="none" xmlns="http://www.w3.org/2000/svg">
<path fill-rule="evenodd" clip-rule="evenodd" d="M65.1356 83.8284C67.8825 82.7842 72.1694 80.4904 75.2715 78.4052C78.9829 75.9104 84.0821 71.1523 86.6215 67.8143C91.1827 61.8189 93.5689 55.721 94.94 46.5549C95.8621 40.3912 95.9277 38.8264 96.0128 20.9362C96.1032 1.90953 96.1857 3.1038 94.6781 1.59633C93.2233 0.141426 94.084 0.206817 76.3647 0.206816C59.2508 0.206814 59.8499 0.171894 58.4361 1.25044C58.075 1.52574 57.5539 2.13504 57.2778 2.60428L56.7763 3.45768L56.7259 19.6684L56.6754 35.879L57.0768 36.8121C57.5481 37.9076 58.8416 39.1284 59.8185 39.3998C60.219 39.5109 63.5565 39.5871 68.0614 39.5876L75.6313 39.5887L75.6313 40.7568C75.6313 43.4164 74.873 47.9299 73.9238 50.9203C72.6619 54.8961 70.7364 58.1016 67.9474 60.87C65.6719 63.1287 63.0371 64.9225 59.3331 66.7348C56.6247 68.0598 56.2184 68.3886 55.4743 69.8582C55.2772 70.2474 55.1458 70.941 55.1393 71.6267C55.13 72.6192 55.2538 73.0223 56.1686 74.9805C59.6502 82.4316 59.935 82.9044 61.3893 83.6464C62.4558 84.1905 63.9873 84.2648 65.1356 83.8284ZM10.203 83.9646C11.2325 83.7745 16.0734 81.4057 18.6947 79.8092C26.6472 74.9658 32.8549 68.4769 36.4875 61.2104C39.1438 55.897 40.4595 50.5295 41.3861 41.2253C41.6324 38.7528 41.703 35.0559 41.7695 21.1235C41.8615 1.88798 41.9447 3.10603 40.435 1.59632C38.9803 0.141607 39.8398 0.206813 22.1313 0.206811C4.87069 0.20681 5.47572 0.16928 4.07209 1.32622C3.70391 1.62976 3.18618 2.31263 2.92147 2.84373L2.44035 3.80933L2.44443 19.8877C2.44851 35.6617 2.45576 35.9821 2.82692 36.8023C3.26179 37.7632 3.92515 38.5117 4.85527 39.0909C5.49039 39.4866 5.68991 39.4981 13.4907 39.5887L21.4759 39.6816L21.4193 41.1677C21.2727 45.0062 20.3461 49.5743 19.0591 52.8014C17.7359 56.1195 16.1512 58.5398 13.7463 60.9154C11.5576 63.0773 9.32307 64.6178 5.81548 66.3826C2.45296 68.0743 1.51318 68.854 1.13255 70.2673C0.682077 71.9401 0.919307 72.7829 3.1364 77.3917C4.37377 79.9638 5.47181 81.989 5.89536 82.4801C6.9713 83.7279 8.54583 84.2705 10.203 83.9646Z" fill="#AE883B" fill-opacity="0.15"/>
</svg>
