<svg width="35" height="34" viewBox="0 0 35 34" fill="none" xmlns="http://www.w3.org/2000/svg">
<path d="M20.8359 5.40332V3.73665C20.8359 1.90332 19.3359 0.40332 17.5026 0.40332H10.8359C9.0026 0.40332 7.5026 1.90332 7.5026 3.73665V5.40332C3.83594 5.40332 0.835938 8.40332 0.835938 12.07V30.4033C0.835938 32.2367 2.33594 33.7367 4.16927 33.7367H22.8359L18.8359 29.7367C17.8359 28.9033 17.3359 27.57 17.3359 26.4033V23.7367H9.16927V27.07H7.5026V23.7367H4.16927V22.07H17.5026V21.7367C17.5026 19.2367 19.5026 17.07 22.1693 17.07H27.5026V12.07C27.5026 8.40332 24.5026 5.40332 20.8359 5.40332ZM14.1693 18.7367L10.8359 15.4033L14.1693 12.07L17.5026 15.4033L14.1693 18.7367ZM17.5026 5.40332H10.8359V3.73665H17.5026V5.40332ZM33.8359 26.7367L27.8359 20.7367C27.5026 20.57 27.1693 20.4033 26.8359 20.4033H22.1693C21.5026 20.4033 20.8359 21.07 20.8359 21.7367V26.4033C20.8359 26.7367 21.0026 27.07 21.1693 27.4033L27.1693 33.4033C27.3359 33.57 27.6693 33.7367 28.1693 33.7367C28.5026 33.7367 28.8359 33.57 29.1693 33.4033L33.8359 28.7367C34.0026 28.57 34.1693 28.2367 34.1693 27.7367C34.1693 27.4033 34.0026 27.07 33.8359 26.7367ZM23.1693 23.7367C22.6693 23.7367 22.1693 23.2367 22.1693 22.7367C22.1693 22.2367 22.6693 21.7367 23.1693 21.7367C23.6693 21.7367 24.1693 22.2367 24.1693 22.7367C24.1693 23.2367 23.6693 23.7367 23.1693 23.7367Z" fill="#344054"/>
</svg>
