<svg width="35" height="34" viewBox="0 0 35 34" fill="none" xmlns="http://www.w3.org/2000/svg">
<path d="M12.1693 15.32L15.7526 11.695L13.4193 9.31999L11.5859 11.1533L9.2526 8.81999L11.0443 6.98665L9.16927 5.11165L5.54427 8.73665L12.1693 15.32ZM25.8359 29.0283L29.4609 25.4033L27.5859 23.5283L25.7526 25.32L23.4193 22.9867L25.2109 21.1533L22.8359 18.82L19.2526 22.4033L25.8359 29.0283ZM24.5443 7.77832L26.8776 10.1117L29.2109 7.77832L26.8359 5.40332L24.5443 7.77832ZM9.58594 32.07H2.5026V24.9867L9.79427 17.695L0.835938 8.73665L9.16927 0.40332L18.1693 9.40332L24.4609 3.06999C24.7943 2.73665 25.1693 2.48665 25.5859 2.31999C26.0026 2.15332 26.4332 2.06999 26.8776 2.06999C27.322 2.06999 27.7526 2.15332 28.1693 2.31999C28.5859 2.48665 28.9609 2.73665 29.2943 3.06999L31.5026 5.31999C31.8359 5.65332 32.0859 6.02832 32.2526 6.44499C32.4193 6.86165 32.5026 7.29221 32.5026 7.73665C32.5026 8.1811 32.4193 8.60499 32.2526 9.00832C32.0859 9.41165 31.8359 9.77943 31.5026 10.1117L25.2109 16.445L34.1693 25.4033L25.8359 33.7367L16.8776 24.7783L9.58594 32.07Z" fill="#344054"/>
</svg>
