<svg width="32" height="31" viewBox="0 0 32 31" fill="none" xmlns="http://www.w3.org/2000/svg">
<path d="M27.9974 30.07L18.8724 20.945L22.3724 17.445L31.4974 26.57L27.9974 30.07ZM4.9974 30.07L1.4974 26.57L12.9974 15.07L10.1641 12.2367L8.9974 13.4033L6.8724 11.2783V14.695L5.70573 15.8617L0.664062 10.82L1.83073 9.65332H5.2474L3.16406 7.56999L9.08073 1.65332C9.63629 1.09777 10.2335 0.694989 10.8724 0.444989C11.5113 0.194989 12.1641 0.0699888 12.8307 0.0699888C13.4974 0.0699888 14.1502 0.194989 14.7891 0.444989C15.428 0.694989 16.0252 1.09777 16.5807 1.65332L12.7474 5.48666L14.8307 7.56999L13.6641 8.73666L16.4974 11.57L20.2474 7.81999C20.1363 7.51443 20.0463 7.19499 19.9774 6.86166C19.9085 6.52832 19.8735 6.19499 19.8724 5.86166C19.8724 4.22277 20.4352 2.84054 21.5607 1.71499C22.6863 0.589433 24.068 0.0272108 25.7057 0.028322C26.1224 0.028322 26.5185 0.0699887 26.8941 0.153322C27.2696 0.236655 27.6513 0.361656 28.0391 0.528322L23.9141 4.65332L26.9141 7.65332L31.0391 3.52832C31.2335 3.91721 31.3657 4.29888 31.4357 4.67332C31.5057 5.04777 31.5402 5.44388 31.5391 5.86166C31.5391 7.50054 30.9768 8.88277 29.8524 10.0083C28.728 11.1339 27.3457 11.6961 25.7057 11.695C25.3724 11.695 25.0391 11.6672 24.7057 11.6117C24.3724 11.5561 24.053 11.4589 23.7474 11.32L4.9974 30.07Z" fill="#344054"/>
</svg>
