<svg width="35" height="34" viewBox="0 0 35 34" fill="none" xmlns="http://www.w3.org/2000/svg">
<path d="M17.5026 3.73665C16.1765 3.73665 14.9048 4.26344 13.9671 5.20112C13.0294 6.1388 12.5026 7.41057 12.5026 8.73665C12.5026 10.7983 13.8059 12.9 15.3993 14.6433C16.1593 15.4733 16.9226 16.1567 17.5026 16.635C18.2474 16.0188 18.95 15.3534 19.6059 14.6433C21.1993 12.9 22.5026 10.8 22.5026 8.73665C22.5026 7.41057 21.9758 6.1388 21.0381 5.20112C20.1005 4.26344 18.8287 3.73665 17.5026 3.73665ZM17.5026 20.76C17.0726 20.4633 16.6376 20.1767 16.2193 19.865C15.0379 18.9756 13.94 17.9804 12.9393 16.8917C11.1993 14.9883 9.16927 12.0917 9.16927 8.73665C9.16927 6.52652 10.0472 4.4069 11.61 2.8441C13.1729 1.28129 15.2925 0.40332 17.5026 0.40332C19.7127 0.40332 21.8324 1.28129 23.3952 2.8441C24.958 4.4069 25.8359 6.52652 25.8359 8.73665C25.8359 12.09 23.8059 14.99 22.0659 16.8917C21.0652 17.9804 19.9673 18.9756 18.7859 19.865C18.3676 20.1767 17.9326 20.465 17.5026 20.76ZM17.5026 9.15332C17.6131 9.15332 17.7191 9.10942 17.7972 9.03128C17.8754 8.95314 17.9193 8.84716 17.9193 8.73665C17.9193 8.62615 17.8754 8.52017 17.7972 8.44203C17.7191 8.36389 17.6131 8.31999 17.5026 8.31999C17.3921 8.31999 17.2861 8.36389 17.208 8.44203C17.1298 8.52017 17.0859 8.62615 17.0859 8.73665C17.0859 8.84716 17.1298 8.95314 17.208 9.03128C17.2861 9.10942 17.3921 9.15332 17.5026 9.15332ZM14.5859 8.73665C14.5859 7.96311 14.8932 7.22124 15.4402 6.67426C15.9872 6.12728 16.7291 5.81999 17.5026 5.81999C18.2762 5.81999 19.018 6.12728 19.565 6.67426C20.112 7.22124 20.4193 7.96311 20.4193 8.73665C20.4193 9.5102 20.112 10.2521 19.565 10.799C19.018 11.346 18.2762 11.6533 17.5026 11.6533C16.7291 11.6533 15.9872 11.346 15.4402 10.799C14.8932 10.2521 14.5859 9.5102 14.5859 8.73665ZM0.835938 13.7367H5.83594V17.07H4.77927L6.22594 19.435L4.16927 20.6933V30.4033H30.8359V19.99L29.5309 18.265L30.6643 17.4083L30.8359 17.6367V17.07H27.5026V13.7367H34.1693V33.7367H0.835938V13.7367ZM4.16927 17.3933L4.6976 17.07H4.16927V17.3933ZM28.5926 23.405L27.1276 24.2017C26.3909 24.6017 25.632 24.9544 24.8509 25.26L23.6376 22.155C24.2876 21.9017 24.9204 21.6072 25.5359 21.2717L26.9993 20.4767L28.5926 23.405ZM9.72927 25.0283C8.9586 24.6996 8.20934 24.3227 7.48594 23.9L9.16594 21.0217C9.76927 21.3739 10.3932 21.6872 11.0376 21.9617L12.5709 22.615L11.2626 25.6817L9.72927 25.0283ZM20.2343 26.5233L18.5693 26.6067C17.7326 26.6478 16.8954 26.6367 16.0576 26.5733L16.3109 23.25C17.0076 23.3033 17.7048 23.3122 18.4026 23.2767L20.0693 23.1933L20.2343 26.5233Z" fill="#344054"/>
</svg>
