<svg width="35" height="34" viewBox="0 0 35 34" fill="none" xmlns="http://www.w3.org/2000/svg">
<path d="M30.6859 22.92H23.1359C22.6939 22.92 22.27 23.0956 21.9574 23.4081C21.6449 23.7207 21.4693 24.1446 21.4693 24.5867C21.4693 25.0287 21.6449 25.4526 21.9574 25.7652C22.27 26.0777 22.6939 26.2533 23.1359 26.2533H27.1359C25.2975 28.1745 22.9266 29.5022 20.3279 30.0656C17.7291 30.6291 15.0213 30.4027 12.5522 29.4154C10.0832 28.4281 7.96572 26.7252 6.47192 24.5253C4.97813 22.3254 4.17623 19.7291 4.16927 17.07C4.16927 16.628 3.99368 16.204 3.68112 15.8915C3.36855 15.5789 2.94463 15.4033 2.5026 15.4033C2.06058 15.4033 1.63665 15.5789 1.32409 15.8915C1.01153 16.204 0.835938 16.628 0.835938 17.07C0.844749 20.3247 1.80631 23.5055 3.60194 26.22C5.39758 28.9346 7.94871 31.0639 10.9405 32.3454C13.9323 33.6268 17.2338 34.0042 20.4376 33.4311C23.6414 32.8579 26.6073 31.3592 28.9693 29.12V32.07C28.9693 32.512 29.1449 32.9359 29.4574 33.2485C29.77 33.5611 30.1939 33.7367 30.6359 33.7367C31.078 33.7367 31.5019 33.5611 31.8144 33.2485C32.127 32.9359 32.3026 32.512 32.3026 32.07V24.57C32.2985 24.1394 32.1279 23.7271 31.8265 23.4195C31.5251 23.1119 31.1164 22.9329 30.6859 22.92ZM22.5026 17.07C22.5026 16.0811 22.2094 15.1144 21.66 14.2921C21.1105 13.4699 20.3297 12.829 19.416 12.4506C18.5024 12.0722 17.4971 11.9731 16.5272 12.1661C15.5572 12.359 14.6663 12.8352 13.9671 13.5345C13.2678 14.2337 12.7916 15.1246 12.5987 16.0945C12.4058 17.0644 12.5048 18.0698 12.8832 18.9834C13.2616 19.897 13.9025 20.6779 14.7248 21.2273C15.547 21.7767 16.5137 22.07 17.5026 22.07C18.8287 22.07 20.1005 21.5432 21.0381 20.6055C21.9758 19.6678 22.5026 18.3961 22.5026 17.07ZM15.8359 17.07C15.8359 16.7404 15.9337 16.4181 16.1168 16.144C16.3 15.87 16.5603 15.6563 16.8648 15.5302C17.1693 15.404 17.5045 15.371 17.8278 15.4353C18.1511 15.4997 18.448 15.6584 18.6811 15.8915C18.9142 16.1246 19.0729 16.4215 19.1372 16.7448C19.2016 17.0681 19.1685 17.4032 19.0424 17.7078C18.9163 18.0123 18.7026 18.2726 18.4286 18.4558C18.1545 18.6389 17.8322 18.7367 17.5026 18.7367C17.0606 18.7367 16.6367 18.5611 16.3241 18.2485C16.0115 17.9359 15.8359 17.512 15.8359 17.07ZM17.5026 0.40332C13.2299 0.415507 9.12509 2.06818 6.03594 5.01999V2.06999C6.03594 1.62796 5.86034 1.20404 5.54778 0.891476C5.23522 0.578915 4.8113 0.40332 4.36927 0.40332C3.92724 0.40332 3.50332 0.578915 3.19076 0.891476C2.8782 1.20404 2.7026 1.62796 2.7026 2.06999V9.56999C2.7026 10.012 2.8782 10.4359 3.19076 10.7485C3.50332 11.0611 3.92724 11.2367 4.36927 11.2367H11.8693C12.3113 11.2367 12.7352 11.0611 13.0478 10.7485C13.3603 10.4359 13.5359 10.012 13.5359 9.56999C13.5359 9.12796 13.3603 8.70404 13.0478 8.39148C12.7352 8.07892 12.3113 7.90332 11.8693 7.90332H7.86927C9.70671 5.9831 12.0761 4.65582 14.6733 4.09183C17.2704 3.52785 19.9769 3.7529 22.4453 4.73809C24.9136 5.72329 27.0313 7.42367 28.5263 9.62099C30.0214 11.8183 30.8257 14.4123 30.8359 17.07C30.8359 17.512 31.0115 17.9359 31.3241 18.2485C31.6367 18.5611 32.0606 18.7367 32.5026 18.7367C32.9446 18.7367 33.3686 18.5611 33.6811 18.2485C33.9937 17.9359 34.1693 17.512 34.1693 17.07C34.1693 14.8813 33.7382 12.714 32.9006 10.6919C32.063 8.66984 30.8354 6.83252 29.2877 5.28487C27.7401 3.73723 25.9028 2.50957 23.8807 1.67199C21.8586 0.834416 19.6913 0.40332 17.5026 0.40332Z" fill="#344054"/>
</svg>
