<svg width="1439" height="248" viewBox="0 0 1439 248" fill="none" xmlns="http://www.w3.org/2000/svg">
<rect width="1439" height="248" fill="#FCF7EB"/>
<path d="M620.467 85V70.4545H626.206C627.309 70.4545 628.249 70.6652 629.025 71.0866C629.802 71.5033 630.394 72.0833 630.801 72.8267C631.213 73.5653 631.419 74.4176 631.419 75.3835C631.419 76.3494 631.21 77.2017 630.794 77.9403C630.377 78.679 629.773 79.2543 628.983 79.6662C628.197 80.0781 627.245 80.2841 626.127 80.2841H622.47V77.8196H625.63C626.222 77.8196 626.71 77.7178 627.093 77.5142C627.482 77.3059 627.77 77.0194 627.96 76.6548C628.154 76.2855 628.251 75.8617 628.251 75.3835C628.251 74.9006 628.154 74.4792 627.96 74.1193C627.77 73.7547 627.482 73.473 627.093 73.2741C626.705 73.0705 626.213 72.9688 625.616 72.9688H623.542V85H620.467ZM635.777 85.206C635.081 85.206 634.461 85.0852 633.916 84.8438C633.372 84.5975 632.941 84.2353 632.624 83.7571C632.311 83.2741 632.155 82.6728 632.155 81.9531C632.155 81.3471 632.266 80.8381 632.489 80.4261C632.711 80.0142 633.014 79.6828 633.398 79.4318C633.781 79.1809 634.217 78.9915 634.705 78.8636C635.197 78.7358 635.713 78.6458 636.253 78.5938C636.887 78.5275 637.399 78.4659 637.787 78.4091C638.175 78.3475 638.457 78.2576 638.632 78.1392C638.807 78.0208 638.895 77.8456 638.895 77.6136V77.571C638.895 77.1212 638.753 76.7732 638.469 76.527C638.19 76.2808 637.792 76.1577 637.276 76.1577C636.731 76.1577 636.298 76.2784 635.976 76.5199C635.654 76.7566 635.441 77.0549 635.337 77.4148L632.539 77.1875C632.681 76.5246 632.96 75.9517 633.377 75.4688C633.793 74.9811 634.331 74.607 634.989 74.3466C635.652 74.0814 636.419 73.9489 637.29 73.9489C637.896 73.9489 638.476 74.0199 639.03 74.1619C639.589 74.304 640.084 74.5241 640.514 74.8224C640.95 75.1207 641.293 75.5043 641.544 75.973C641.795 76.437 641.921 76.9934 641.921 77.642V85H639.051V83.4872H638.966C638.791 83.8281 638.557 84.1288 638.263 84.3892C637.969 84.6449 637.617 84.8461 637.205 84.9929C636.793 85.1349 636.317 85.206 635.777 85.206ZM636.644 83.1179C637.089 83.1179 637.482 83.0303 637.823 82.8551C638.164 82.6752 638.431 82.4337 638.625 82.1307C638.819 81.8277 638.916 81.4844 638.916 81.1009V79.9432C638.822 80.0047 638.691 80.0616 638.526 80.1136C638.365 80.161 638.182 80.206 637.979 80.2486C637.775 80.2865 637.572 80.322 637.368 80.3551C637.164 80.3835 636.98 80.4096 636.814 80.4332C636.459 80.4853 636.149 80.5682 635.884 80.6818C635.619 80.7955 635.413 80.9493 635.266 81.1435C635.119 81.3329 635.046 81.5696 635.046 81.8537C635.046 82.2656 635.195 82.5805 635.493 82.7983C635.796 83.0114 636.18 83.1179 636.644 83.1179ZM643.868 85V74.0909H646.801V75.9943H646.915C647.114 75.3172 647.447 74.8059 647.916 74.4602C648.385 74.1098 648.925 73.9347 649.536 73.9347C649.687 73.9347 649.85 73.9441 650.026 73.9631C650.201 73.982 650.355 74.008 650.487 74.0412V76.7259C650.345 76.6832 650.149 76.6454 649.898 76.6122C649.647 76.5791 649.417 76.5625 649.209 76.5625C648.764 76.5625 648.366 76.6596 648.016 76.8537C647.67 77.0431 647.395 77.3082 647.192 77.6491C646.993 77.9901 646.893 78.383 646.893 78.8281V85H643.868ZM658.001 74.0909V76.3636H651.431V74.0909H658.001ZM652.923 71.4773H655.948V81.6477C655.948 81.9271 655.991 82.1449 656.076 82.3011C656.161 82.4527 656.28 82.5592 656.431 82.6207C656.588 82.6823 656.768 82.7131 656.971 82.7131C657.113 82.7131 657.255 82.7012 657.397 82.6776C657.539 82.6491 657.648 82.6278 657.724 82.6136L658.2 84.8651C658.048 84.9124 657.835 84.9669 657.561 85.0284C657.286 85.0947 656.952 85.1349 656.559 85.1491C655.83 85.1776 655.191 85.0805 654.642 84.858C654.097 84.6354 653.673 84.2898 653.37 83.821C653.067 83.3523 652.918 82.7604 652.923 82.0455V71.4773ZM662.597 78.6932V85H659.572V74.0909H662.455V76.0156H662.583C662.825 75.3812 663.229 74.8793 663.798 74.5099C664.366 74.1359 665.055 73.9489 665.864 73.9489C666.622 73.9489 667.283 74.1146 667.846 74.446C668.409 74.7775 668.847 75.2509 669.16 75.8665C669.472 76.4773 669.629 77.2064 669.629 78.054V85H666.603V78.5938C666.608 77.9261 666.437 77.4053 666.092 77.0312C665.746 76.6525 665.27 76.4631 664.664 76.4631C664.257 76.4631 663.897 76.5507 663.585 76.7259C663.277 76.901 663.035 77.1567 662.86 77.4929C662.69 77.8243 662.602 78.2244 662.597 78.6932ZM676.585 85.2131C675.463 85.2131 674.497 84.9858 673.687 84.5312C672.882 84.072 672.262 83.4233 671.826 82.5852C671.391 81.7424 671.173 80.7457 671.173 79.5952C671.173 78.473 671.391 77.4882 671.826 76.6406C672.262 75.7931 672.875 75.1326 673.666 74.6591C674.461 74.1856 675.394 73.9489 676.464 73.9489C677.184 73.9489 677.854 74.0649 678.474 74.2969C679.099 74.5241 679.644 74.8674 680.108 75.3267C680.576 75.786 680.941 76.3636 681.201 77.0597C681.462 77.7509 681.592 78.5606 681.592 79.4886V80.3196H672.38V78.4446H678.744C678.744 78.009 678.649 77.6231 678.46 77.2869C678.27 76.9508 678.008 76.688 677.671 76.4986C677.34 76.3045 676.954 76.2074 676.514 76.2074C676.055 76.2074 675.647 76.3139 675.292 76.527C674.942 76.7353 674.667 77.017 674.468 77.3722C674.269 77.7225 674.168 78.1132 674.163 78.544V80.3267C674.163 80.8665 674.262 81.3329 674.461 81.7259C674.665 82.1188 674.951 82.4219 675.321 82.6349C675.69 82.848 676.128 82.9545 676.635 82.9545C676.971 82.9545 677.278 82.9072 677.558 82.8125C677.837 82.7178 678.076 82.5758 678.275 82.3864C678.474 82.197 678.626 81.965 678.73 81.6903L681.528 81.875C681.386 82.5473 681.095 83.1345 680.654 83.6364C680.219 84.1335 679.655 84.5218 678.964 84.8011C678.278 85.0758 677.484 85.2131 676.585 85.2131ZM683.166 85V74.0909H686.1V75.9943H686.213C686.412 75.3172 686.746 74.8059 687.215 74.4602C687.683 74.1098 688.223 73.9347 688.834 73.9347C688.985 73.9347 689.149 73.9441 689.324 73.9631C689.499 73.982 689.653 74.008 689.786 74.0412V76.7259C689.644 76.6832 689.447 76.6454 689.196 76.6122C688.945 76.5791 688.716 76.5625 688.507 76.5625C688.062 76.5625 687.664 76.6596 687.314 76.8537C686.968 77.0431 686.694 77.3082 686.49 77.6491C686.291 77.9901 686.192 78.383 686.192 78.8281V85H683.166ZM700.027 77.2017L697.257 77.3722C697.209 77.1354 697.108 76.9223 696.951 76.733C696.795 76.5388 696.589 76.3849 696.333 76.2713C696.083 76.1529 695.782 76.0938 695.431 76.0938C694.963 76.0938 694.567 76.1932 694.245 76.392C693.923 76.5862 693.762 76.8466 693.762 77.1733C693.762 77.4337 693.867 77.6539 694.075 77.8338C694.283 78.0137 694.641 78.1581 695.147 78.267L697.122 78.6648C698.182 78.8826 698.973 79.233 699.494 79.7159C700.015 80.1989 700.275 80.8333 700.275 81.6193C700.275 82.3343 700.065 82.9616 699.643 83.5014C699.226 84.0412 698.654 84.4626 697.924 84.7656C697.2 85.0639 696.364 85.2131 695.417 85.2131C693.973 85.2131 692.823 84.9124 691.966 84.3111C691.113 83.705 690.614 82.8812 690.467 81.8395L693.443 81.6832C693.533 82.1236 693.751 82.4598 694.096 82.6918C694.442 82.919 694.885 83.0327 695.424 83.0327C695.955 83.0327 696.381 82.9309 696.703 82.7273C697.03 82.5189 697.195 82.2514 697.2 81.9247C697.195 81.6501 697.079 81.4252 696.852 81.25C696.625 81.0701 696.274 80.9328 695.801 80.8381L693.912 80.4616C692.846 80.2486 692.053 79.8793 691.532 79.3537C691.016 78.8281 690.758 78.1581 690.758 77.3438C690.758 76.643 690.948 76.0393 691.326 75.5327C691.71 75.026 692.247 74.6354 692.939 74.3608C693.635 74.0862 694.449 73.9489 695.382 73.9489C696.76 73.9489 697.844 74.2401 698.635 74.8224C699.43 75.4048 699.894 76.1979 700.027 77.2017ZM711.812 74.0909V76.3636H705.242V74.0909H711.812ZM706.734 71.4773H709.759V81.6477C709.759 81.9271 709.802 82.1449 709.887 82.3011C709.972 82.4527 710.091 82.5592 710.242 82.6207C710.399 82.6823 710.578 82.7131 710.782 82.7131C710.924 82.7131 711.066 82.7012 711.208 82.6776C711.35 82.6491 711.459 82.6278 711.535 82.6136L712.011 84.8651C711.859 84.9124 711.646 84.9669 711.372 85.0284C711.097 85.0947 710.763 85.1349 710.37 85.1491C709.641 85.1776 709.002 85.0805 708.453 84.858C707.908 84.6354 707.484 84.2898 707.181 83.821C706.878 83.3523 706.729 82.7604 706.734 82.0455V71.4773ZM716.643 78.6932V85H713.617V70.4545H716.557V76.0156H716.685C716.932 75.3717 717.329 74.8674 717.879 74.5028C718.428 74.1335 719.117 73.9489 719.945 73.9489C720.703 73.9489 721.363 74.1146 721.927 74.446C722.495 74.7727 722.935 75.2438 723.248 75.8594C723.565 76.4702 723.721 77.2017 723.717 78.054V85H720.691V78.5938C720.696 77.9214 720.525 77.3982 720.18 77.0241C719.839 76.6501 719.361 76.4631 718.745 76.4631C718.333 76.4631 717.968 76.5507 717.651 76.7259C717.339 76.901 717.093 77.1567 716.913 77.4929C716.737 77.8243 716.647 78.2244 716.643 78.6932ZM728.808 85.206C728.112 85.206 727.492 85.0852 726.948 84.8438C726.403 84.5975 725.972 84.2353 725.655 83.7571C725.343 83.2741 725.186 82.6728 725.186 81.9531C725.186 81.3471 725.298 80.8381 725.52 80.4261C725.743 80.0142 726.046 79.6828 726.429 79.4318C726.813 79.1809 727.248 78.9915 727.736 78.8636C728.228 78.7358 728.744 78.6458 729.284 78.5938C729.919 78.5275 730.43 78.4659 730.818 78.4091C731.207 78.3475 731.488 78.2576 731.664 78.1392C731.839 78.0208 731.926 77.8456 731.926 77.6136V77.571C731.926 77.1212 731.784 76.7732 731.5 76.527C731.221 76.2808 730.823 76.1577 730.307 76.1577C729.762 76.1577 729.329 76.2784 729.007 76.5199C728.685 76.7566 728.472 77.0549 728.368 77.4148L725.57 77.1875C725.712 76.5246 725.991 75.9517 726.408 75.4688C726.825 74.9811 727.362 74.607 728.02 74.3466C728.683 74.0814 729.45 73.9489 730.321 73.9489C730.927 73.9489 731.507 74.0199 732.061 74.1619C732.62 74.304 733.115 74.5241 733.546 74.8224C733.981 75.1207 734.325 75.5043 734.575 75.973C734.826 76.437 734.952 76.9934 734.952 77.642V85H732.083V83.4872H731.997C731.822 83.8281 731.588 84.1288 731.294 84.3892C731.001 84.6449 730.648 84.8461 730.236 84.9929C729.824 85.1349 729.348 85.206 728.808 85.206ZM729.675 83.1179C730.12 83.1179 730.513 83.0303 730.854 82.8551C731.195 82.6752 731.462 82.4337 731.656 82.1307C731.851 81.8277 731.948 81.4844 731.948 81.1009V79.9432C731.853 80.0047 731.723 80.0616 731.557 80.1136C731.396 80.161 731.214 80.206 731.01 80.2486C730.807 80.2865 730.603 80.322 730.399 80.3551C730.196 80.3835 730.011 80.4096 729.845 80.4332C729.49 80.4853 729.18 80.5682 728.915 80.6818C728.65 80.7955 728.444 80.9493 728.297 81.1435C728.15 81.3329 728.077 81.5696 728.077 81.8537C728.077 82.2656 728.226 82.5805 728.524 82.7983C728.827 83.0114 729.211 83.1179 729.675 83.1179ZM742.702 74.0909V76.3636H736.132V74.0909H742.702ZM737.624 71.4773H740.649V81.6477C740.649 81.9271 740.692 82.1449 740.777 82.3011C740.862 82.4527 740.981 82.5592 741.132 82.6207C741.288 82.6823 741.468 82.7131 741.672 82.7131C741.814 82.7131 741.956 82.7012 742.098 82.6776C742.24 82.6491 742.349 82.6278 742.425 82.6136L742.901 84.8651C742.749 84.9124 742.536 84.9669 742.261 85.0284C741.987 85.0947 741.653 85.1349 741.26 85.1491C740.531 85.1776 739.892 85.0805 739.342 84.858C738.798 84.6354 738.374 84.2898 738.071 83.821C737.768 83.3523 737.619 82.7604 737.624 82.0455V71.4773ZM754.304 74.0909V76.3636H747.734V74.0909H754.304ZM749.226 71.4773H752.252V81.6477C752.252 81.9271 752.294 82.1449 752.379 82.3011C752.465 82.4527 752.583 82.5592 752.734 82.6207C752.891 82.6823 753.071 82.7131 753.274 82.7131C753.416 82.7131 753.558 82.7012 753.7 82.6776C753.842 82.6491 753.951 82.6278 754.027 82.6136L754.503 84.8651C754.351 84.9124 754.138 84.9669 753.864 85.0284C753.589 85.0947 753.255 85.1349 752.862 85.1491C752.133 85.1776 751.494 85.0805 750.945 84.858C750.4 84.6354 749.976 84.2898 749.673 83.821C749.37 83.3523 749.221 82.7604 749.226 82.0455V71.4773ZM755.875 85V74.0909H758.808V75.9943H758.922C759.121 75.3172 759.455 74.8059 759.923 74.4602C760.392 74.1098 760.932 73.9347 761.543 73.9347C761.694 73.9347 761.857 73.9441 762.033 73.9631C762.208 73.982 762.362 74.008 762.494 74.0412V76.7259C762.352 76.6832 762.156 76.6454 761.905 76.6122C761.654 76.5791 761.424 76.5625 761.216 76.5625C760.771 76.5625 760.373 76.6596 760.023 76.8537C759.677 77.0431 759.402 77.3082 759.199 77.6491C759 77.9901 758.901 78.383 758.901 78.8281V85H755.875ZM770.654 80.3551V74.0909H773.68V85H770.775V83.0185H770.661C770.415 83.6577 770.006 84.1714 769.433 84.5597C768.865 84.9479 768.171 85.142 767.352 85.142C766.623 85.142 765.981 84.9763 765.427 84.6449C764.873 84.3134 764.44 83.8423 764.127 83.2315C763.82 82.6207 763.663 81.8892 763.659 81.0369V74.0909H766.684V80.4972C766.689 81.1411 766.862 81.6501 767.203 82.0241C767.544 82.3982 768 82.5852 768.573 82.5852C768.938 82.5852 769.279 82.5024 769.596 82.3366C769.913 82.1662 770.169 81.9152 770.363 81.5838C770.562 81.2524 770.659 80.8428 770.654 80.3551ZM784.777 77.2017L782.007 77.3722C781.959 77.1354 781.858 76.9223 781.701 76.733C781.545 76.5388 781.339 76.3849 781.083 76.2713C780.833 76.1529 780.532 76.0938 780.181 76.0938C779.713 76.0938 779.317 76.1932 778.995 76.392C778.673 76.5862 778.512 76.8466 778.512 77.1733C778.512 77.4337 778.617 77.6539 778.825 77.8338C779.033 78.0137 779.391 78.1581 779.897 78.267L781.872 78.6648C782.932 78.8826 783.723 79.233 784.244 79.7159C784.765 80.1989 785.025 80.8333 785.025 81.6193C785.025 82.3343 784.815 82.9616 784.393 83.5014C783.976 84.0412 783.404 84.4626 782.674 84.7656C781.95 85.0639 781.114 85.2131 780.167 85.2131C778.723 85.2131 777.573 84.9124 776.716 84.3111C775.863 83.705 775.364 82.8812 775.217 81.8395L778.193 81.6832C778.283 82.1236 778.501 82.4598 778.846 82.6918C779.192 82.919 779.635 83.0327 780.174 83.0327C780.705 83.0327 781.131 82.9309 781.453 82.7273C781.779 82.5189 781.945 82.2514 781.95 81.9247C781.945 81.6501 781.829 81.4252 781.602 81.25C781.375 81.0701 781.024 80.9328 780.551 80.8381L778.662 80.4616C777.596 80.2486 776.803 79.8793 776.282 79.3537C775.766 78.8281 775.508 78.1581 775.508 77.3438C775.508 76.643 775.698 76.0393 776.076 75.5327C776.46 75.026 776.997 74.6354 777.689 74.3608C778.385 74.0862 779.199 73.9489 780.132 73.9489C781.51 73.9489 782.594 74.2401 783.385 74.8224C784.18 75.4048 784.644 76.1979 784.777 77.2017ZM792.333 74.0909V76.3636H785.763V74.0909H792.333ZM787.255 71.4773H790.28V81.6477C790.28 81.9271 790.323 82.1449 790.408 82.3011C790.494 82.4527 790.612 82.5592 790.763 82.6207C790.92 82.6823 791.1 82.7131 791.303 82.7131C791.445 82.7131 791.587 82.7012 791.729 82.6776C791.871 82.6491 791.98 82.6278 792.056 82.6136L792.532 84.8651C792.38 84.9124 792.167 84.9669 791.893 85.0284C791.618 85.0947 791.284 85.1349 790.891 85.1491C790.162 85.1776 789.523 85.0805 788.974 84.858C788.429 84.6354 788.005 84.2898 787.702 83.821C787.399 83.3523 787.25 82.7604 787.255 82.0455V71.4773ZM805.129 80.3551V74.0909H808.154V85H805.249V83.0185H805.136C804.889 83.6577 804.48 84.1714 803.907 84.5597C803.339 84.9479 802.645 85.142 801.826 85.142C801.097 85.142 800.455 84.9763 799.901 84.6449C799.347 84.3134 798.914 83.8423 798.602 83.2315C798.294 82.6207 798.138 81.8892 798.133 81.0369V74.0909H801.158V80.4972C801.163 81.1411 801.336 81.6501 801.677 82.0241C802.018 82.3982 802.475 82.5852 803.048 82.5852C803.412 82.5852 803.753 82.5024 804.07 82.3366C804.388 82.1662 804.643 81.9152 804.837 81.5838C805.036 81.2524 805.133 80.8428 805.129 80.3551ZM819.251 77.2017L816.481 77.3722C816.434 77.1354 816.332 76.9223 816.176 76.733C816.019 76.5388 815.813 76.3849 815.558 76.2713C815.307 76.1529 815.006 76.0938 814.656 76.0938C814.187 76.0938 813.792 76.1932 813.47 76.392C813.148 76.5862 812.987 76.8466 812.987 77.1733C812.987 77.4337 813.091 77.6539 813.299 77.8338C813.508 78.0137 813.865 78.1581 814.372 78.267L816.346 78.6648C817.407 78.8826 818.197 79.233 818.718 79.7159C819.239 80.1989 819.499 80.8333 819.499 81.6193C819.499 82.3343 819.289 82.9616 818.867 83.5014C818.451 84.0412 817.878 84.4626 817.149 84.7656C816.424 85.0639 815.588 85.2131 814.642 85.2131C813.197 85.2131 812.047 84.9124 811.19 84.3111C810.338 83.705 809.838 82.8812 809.691 81.8395L812.667 81.6832C812.757 82.1236 812.975 82.4598 813.32 82.6918C813.666 82.919 814.109 83.0327 814.649 83.0327C815.179 83.0327 815.605 82.9309 815.927 82.7273C816.254 82.5189 816.419 82.2514 816.424 81.9247C816.419 81.6501 816.303 81.4252 816.076 81.25C815.849 81.0701 815.499 80.9328 815.025 80.8381L813.136 80.4616C812.07 80.2486 811.277 79.8793 810.757 79.3537C810.24 78.8281 809.982 78.1581 809.982 77.3438C809.982 76.643 810.172 76.0393 810.551 75.5327C810.934 75.026 811.472 74.6354 812.163 74.3608C812.859 74.0862 813.673 73.9489 814.606 73.9489C815.984 73.9489 817.068 74.2401 817.859 74.8224C818.654 75.4048 819.118 76.1979 819.251 77.2017Z" fill="#344054"/>
<path d="M328.312 170.632L318.376 136.687H328.575L333.181 157.571H333.444L338.905 136.687H346.933L352.394 157.638H352.657L357.263 136.687H367.462L357.526 170.632H348.775L343.05 151.671H342.787L337.063 170.632H328.312Z" fill="#D4D4D8"/>
<path d="M374.654 171.03C373.042 171.03 371.617 170.765 370.377 170.234C369.149 169.693 368.184 168.875 367.482 167.781C366.78 166.687 366.429 165.295 366.429 163.604C366.429 162.212 366.665 161.024 367.137 160.041C367.608 159.046 368.266 158.234 369.111 157.604C369.955 156.975 370.937 156.494 372.055 156.162C373.185 155.831 374.402 155.615 375.707 155.516C377.122 155.405 378.257 155.273 379.112 155.118C379.978 154.952 380.603 154.726 380.987 154.439C381.371 154.14 381.563 153.748 381.563 153.262V153.196C381.563 152.533 381.311 152.024 380.806 151.671C380.302 151.317 379.655 151.14 378.865 151.14C377.999 151.14 377.292 151.334 376.743 151.72C376.206 152.096 375.882 152.676 375.773 153.461H367.416C367.526 151.914 368.014 150.488 368.88 149.185C369.758 147.87 371.035 146.82 372.713 146.035C374.391 145.24 376.486 144.842 378.997 144.842C380.806 144.842 382.429 145.057 383.866 145.488C385.303 145.908 386.525 146.499 387.534 147.262C388.543 148.013 389.311 148.897 389.837 149.914C390.375 150.919 390.643 152.013 390.643 153.196V170.632H382.155V167.052H381.958C381.453 168.002 380.839 168.77 380.115 169.356C379.403 169.941 378.586 170.367 377.664 170.632C376.754 170.897 375.751 171.03 374.654 171.03ZM377.615 165.262C378.306 165.262 378.953 165.118 379.556 164.831C380.17 164.544 380.669 164.129 381.053 163.588C381.437 163.046 381.629 162.389 381.629 161.615V159.494C381.388 159.593 381.13 159.687 380.856 159.776C380.593 159.864 380.307 159.947 380 160.024C379.704 160.102 379.386 160.173 379.046 160.24C378.717 160.306 378.372 160.367 378.01 160.422C377.308 160.533 376.732 160.715 376.283 160.969C375.844 161.212 375.515 161.516 375.296 161.881C375.087 162.234 374.983 162.632 374.983 163.074C374.983 163.781 375.23 164.323 375.723 164.698C376.217 165.074 376.847 165.262 377.615 165.262Z" fill="#D4D4D8"/>
<path d="M419.541 145.173L411.053 170.632H400.525L392.037 145.173H401.578L405.658 162.013H405.921L410 145.173H419.541Z" fill="#D4D4D8"/>
<path d="M433.462 171.096C430.764 171.096 428.439 170.577 426.487 169.538C424.546 168.488 423.049 166.986 421.996 165.03C420.954 163.063 420.433 160.709 420.433 157.969C420.433 155.339 420.96 153.041 422.013 151.074C423.065 149.107 424.551 147.577 426.47 146.483C428.39 145.389 430.654 144.842 433.264 144.842C435.172 144.842 436.9 145.14 438.446 145.737C439.992 146.334 441.314 147.201 442.41 148.339C443.507 149.466 444.351 150.836 444.943 152.45C445.536 154.063 445.832 155.881 445.832 157.903V160.024H423.263V154.986H437.475C437.464 154.256 437.278 153.615 436.916 153.063C436.565 152.499 436.088 152.063 435.485 151.754C434.893 151.433 434.218 151.273 433.462 151.273C432.727 151.273 432.052 151.433 431.438 151.754C430.824 152.063 430.331 152.494 429.958 153.046C429.596 153.599 429.404 154.245 429.382 154.986V160.422C429.382 161.24 429.552 161.969 429.892 162.61C430.232 163.251 430.72 163.754 431.356 164.118C431.992 164.483 432.76 164.665 433.659 164.665C434.284 164.665 434.854 164.577 435.37 164.4C435.896 164.223 436.346 163.969 436.719 163.638C437.091 163.295 437.366 162.886 437.541 162.411H445.832C445.547 164.179 444.872 165.715 443.808 167.019C442.745 168.312 441.335 169.317 439.581 170.035C437.837 170.742 435.797 171.096 433.462 171.096Z" fill="#D4D4D8"/>
<path d="M449.537 170.632V145.173H458.354V150.013H458.617C459.078 148.223 459.807 146.914 460.805 146.085C461.814 145.256 462.993 144.842 464.342 144.842C464.736 144.842 465.126 144.875 465.51 144.941C465.904 144.997 466.283 145.08 466.645 145.19V152.997C466.195 152.842 465.641 152.726 464.983 152.649C464.325 152.571 463.76 152.533 463.289 152.533C462.401 152.533 461.6 152.737 460.887 153.146C460.185 153.544 459.632 154.107 459.226 154.836C458.82 155.555 458.617 156.4 458.617 157.372V170.632H449.537Z" fill="#D4D4D8"/>
<path d="M469.622 170.632V145.173H478.702V170.632H469.622ZM474.162 142.522C472.934 142.522 471.881 142.113 471.004 141.295C470.126 140.477 469.688 139.494 469.688 138.345C469.688 137.196 470.126 136.212 471.004 135.394C471.881 134.577 472.934 134.168 474.162 134.168C475.401 134.168 476.454 134.577 477.32 135.394C478.198 136.212 478.636 137.196 478.636 138.345C478.636 139.494 478.198 140.477 477.32 141.295C476.454 142.113 475.401 142.522 474.162 142.522Z" fill="#D4D4D8"/>
<path d="M495.501 171.096C492.76 171.096 490.413 170.549 488.461 169.455C486.509 168.35 485.012 166.814 483.97 164.847C482.928 162.87 482.407 160.577 482.407 157.969C482.407 155.361 482.928 153.074 483.97 151.107C485.012 149.129 486.509 147.593 488.461 146.499C490.413 145.394 492.76 144.842 495.501 144.842C498.243 144.842 500.59 145.394 502.542 146.499C504.494 147.593 505.991 149.129 507.032 151.107C508.074 153.074 508.595 155.361 508.595 157.969C508.595 160.577 508.074 162.87 507.032 164.847C505.991 166.814 504.494 168.35 502.542 169.455C500.59 170.549 498.243 171.096 495.501 171.096ZM495.567 164.334C496.335 164.334 496.998 164.074 497.557 163.555C498.117 163.035 498.55 162.295 498.857 161.334C499.164 160.372 499.318 159.229 499.318 157.903C499.318 156.566 499.164 155.422 498.857 154.472C498.55 153.51 498.117 152.77 497.557 152.251C496.998 151.731 496.335 151.472 495.567 151.472C494.756 151.472 494.059 151.731 493.478 152.251C492.897 152.77 492.453 153.51 492.146 154.472C491.839 155.422 491.685 156.566 491.685 157.903C491.685 159.229 491.839 160.372 492.146 161.334C492.453 162.295 492.897 163.035 493.478 163.555C494.059 164.074 494.756 164.334 495.567 164.334Z" fill="#D4D4D8"/>
<path fill-rule="evenodd" clip-rule="evenodd" d="M248.327 127.073C245.931 128.761 243.763 130.758 241.882 133.005C249.57 132.286 259.337 133.46 270.676 139.173C282.785 145.273 292.536 145.479 299.322 144.161C298.707 142.282 297.931 140.477 297.013 138.76C289.245 139.586 279.286 138.493 267.68 132.646C260.31 128.933 253.813 127.404 248.327 127.073ZM292.475 132.252C286.341 125.346 277.426 121 267.503 121C264.589 121 261.762 121.375 259.066 122.079C262.717 123.083 266.595 124.551 270.676 126.608C279.174 130.888 286.51 132.267 292.475 132.252ZM300.773 150.754C292.575 152.385 281.254 152.05 267.68 145.212C254.99 138.818 244.889 138.899 238.077 140.424C237.726 140.503 237.382 140.585 237.047 140.672C236.155 142.626 235.443 144.681 234.933 146.815C235.478 146.668 236.042 146.529 236.624 146.398C244.888 144.548 256.564 144.628 270.676 151.738C283.367 158.131 293.467 158.051 300.279 156.526C300.513 156.473 300.743 156.419 300.969 156.364C300.994 155.832 301.006 155.296 301.006 154.758C301.006 153.403 300.927 152.067 300.773 150.754ZM299.875 163.488C291.756 164.918 280.765 164.369 267.68 157.777C254.99 151.383 244.889 151.464 238.077 152.989C236.565 153.328 235.205 153.74 234.005 154.175C234.002 154.369 234 154.563 234 154.758C234 173.401 249 188.515 267.503 188.515C283.01 188.515 296.057 177.9 299.875 163.488Z" fill="#7F57F1"/>
<path d="M663.04 142.132H666.822V168.564H678.167V172.362H663.04V142.132ZM689.947 142.132C692.191 142.132 694.385 142.8 696.251 144.052C698.116 145.304 699.571 147.083 700.429 149.165C701.288 151.247 701.513 153.538 701.075 155.747C700.637 157.958 699.557 159.988 697.97 161.581C696.383 163.174 694.362 164.259 692.161 164.699C689.96 165.139 687.679 164.913 685.606 164.051C683.533 163.188 681.761 161.728 680.514 159.854C679.268 157.981 678.602 155.778 678.602 153.525C678.602 152.029 678.896 150.547 679.466 149.165C680.036 147.782 680.872 146.527 681.925 145.469C682.979 144.411 684.229 143.571 685.606 142.999C686.982 142.426 688.458 142.132 689.947 142.132ZM689.947 161.12C691.443 161.12 692.906 160.675 694.15 159.84C695.393 159.006 696.363 157.819 696.935 156.431C697.508 155.044 697.658 153.516 697.366 152.043C697.074 150.57 696.353 149.216 695.296 148.154C694.238 147.092 692.89 146.368 691.423 146.075C689.956 145.782 688.435 145.933 687.053 146.508C685.671 147.082 684.49 148.056 683.659 149.305C682.828 150.554 682.384 152.023 682.384 153.525C682.394 155.533 683.195 157.455 684.613 158.871C686.03 160.287 687.948 161.082 689.947 161.082V161.12ZM682.384 168.602H697.511V172.4H682.384V168.602ZM730.791 172.4H727.009V169.684C724.57 171.398 721.666 172.32 718.689 172.324C716.151 172.341 713.649 171.716 711.414 170.507C709.179 169.298 707.283 167.543 705.9 165.405C704.518 163.267 703.694 160.814 703.503 158.272C703.313 155.73 703.763 153.18 704.811 150.859C705.86 148.537 707.473 146.518 709.503 144.987C711.533 143.456 713.914 142.462 716.426 142.098C718.939 141.734 721.502 142.01 723.88 142.902C726.258 143.794 728.375 145.273 730.034 147.202L727.255 149.689C725.992 148.272 724.397 147.194 722.614 146.555C720.831 145.916 718.917 145.734 717.046 146.028C715.175 146.322 713.407 147.081 711.904 148.237C710.4 149.392 709.208 150.907 708.437 152.644C707.666 154.38 707.34 156.283 707.488 158.179C707.637 160.074 708.255 161.902 709.288 163.496C710.32 165.09 711.733 166.399 713.399 167.304C715.064 168.209 716.928 168.682 718.821 168.678C720.393 168.681 721.946 168.343 723.376 167.688C724.805 167.032 726.077 166.075 727.104 164.88H716.893V161.082H730.829L730.791 172.4ZM744.708 142.208C746.952 142.208 749.145 142.876 751.011 144.128C752.877 145.38 754.331 147.159 755.19 149.241C756.048 151.323 756.273 153.614 755.835 155.823C755.397 158.033 754.317 160.064 752.73 161.657C751.143 163.25 749.122 164.335 746.921 164.775C744.72 165.215 742.439 164.989 740.366 164.127C738.293 163.264 736.521 161.804 735.275 159.93C734.028 158.057 733.362 155.854 733.362 153.601C733.352 152.095 733.64 150.602 734.208 149.209C734.776 147.815 735.613 146.548 736.672 145.482C737.73 144.415 738.989 143.57 740.375 142.995C741.761 142.42 743.246 142.127 744.746 142.132L744.708 142.208ZM744.708 161.196C746.204 161.196 747.666 160.751 748.91 159.916C750.154 159.081 751.123 157.895 751.696 156.507C752.268 155.119 752.418 153.592 752.126 152.119C751.834 150.646 751.114 149.292 750.056 148.23C748.998 147.168 747.651 146.444 746.183 146.151C744.716 145.858 743.195 146.009 741.813 146.584C740.431 147.158 739.25 148.132 738.419 149.381C737.588 150.63 737.144 152.099 737.144 153.601C737.174 155.602 737.989 157.511 739.413 158.912C740.836 160.312 742.753 161.093 744.746 161.082L744.708 161.196ZM737.144 168.678H752.271V172.475H737.144V168.678ZM760.081 142.132H763.863V172.324H760.081V142.132ZM769.1 142.132H772.882C773.077 142.111 773.273 142.111 773.468 142.132C775.052 141.959 776.654 142.123 778.171 142.614C779.687 143.105 781.084 143.91 782.269 144.979C783.455 146.047 784.403 147.355 785.053 148.816C785.702 150.277 786.037 151.859 786.037 153.458C786.037 155.058 785.702 156.64 785.053 158.101C784.403 159.562 783.455 160.869 782.269 161.938C781.084 163.006 779.687 163.812 778.171 164.303C776.654 164.793 775.052 164.958 773.468 164.785H772.882V172.381H769.1V142.132ZM772.882 145.929V160.949H773.468C774.537 161.092 775.623 161.004 776.654 160.691C777.686 160.378 778.639 159.847 779.449 159.135C780.26 158.422 780.91 157.543 781.355 156.558C781.8 155.572 782.03 154.503 782.03 153.42C782.03 152.338 781.8 151.269 781.355 150.283C780.91 149.298 780.26 148.419 779.449 147.706C778.639 146.993 777.686 146.463 776.654 146.149C775.623 145.837 774.537 145.749 773.468 145.891C773.262 145.913 773.059 145.957 772.863 146.024L772.882 145.929ZM800.13 144.315L797.331 146.537C796.849 146.03 796.232 145.673 795.554 145.506C794.875 145.339 794.164 145.37 793.503 145.596C792.841 145.821 792.258 146.231 791.821 146.778C791.383 147.325 791.111 147.986 791.035 148.683V148.987C791.035 150.658 792.188 151.778 794.438 151.93C803.099 152.461 807.07 156.544 807.07 161.937V162.279C806.846 164.413 806.017 166.438 804.68 168.113C803.344 169.787 801.556 171.041 799.531 171.725C797.505 172.409 795.326 172.495 793.254 171.971C791.181 171.448 789.302 170.338 787.839 168.773L790.732 166.532C791.406 167.257 792.228 167.826 793.142 168.2C794.056 168.573 795.041 168.743 796.027 168.697C797.848 168.793 799.636 168.179 801.017 166.983C802.398 165.787 803.266 164.102 803.439 162.279V162.013C803.439 156.943 798.485 156.012 794.193 155.595C790.222 155.215 787.366 152.727 787.366 149.138V148.987C787.506 147.118 788.356 145.375 789.738 144.117C791.121 142.859 792.932 142.182 794.798 142.227C795.786 142.197 796.77 142.376 797.685 142.753C798.6 143.129 799.427 143.693 800.111 144.41L800.13 144.315ZM821.875 168.469C826.584 168.469 830.309 163.361 830.309 157.076V141.885H834.09V157.076C834.09 165.431 828.645 172.172 821.951 172.172C815.257 172.172 809.811 165.431 809.811 157.076V141.885H813.593V157.076C813.442 163.456 817.167 168.564 821.856 168.564L821.875 168.469ZM863.116 172.267H859.334V153.468L850.617 164.861L841.9 153.468V172.324H838.118V142.132L850.598 158.633L863.078 142.132L863.116 172.267Z" fill="#A1A1AA"/>
<path d="M644.887 137.593C644.887 134.854 643.804 132.226 641.875 130.289C639.946 128.352 637.329 127.264 634.601 127.264C631.873 127.264 629.256 128.352 627.327 130.289C625.398 132.226 624.314 134.854 624.314 137.593V168.83L632.786 174.925V189.774H636.416V174.925L644.887 168.83V137.593ZM641.257 155.063L636.416 159.924V155.367L641.257 150.506V155.063ZM628.021 150.506L632.861 155.367V159.924L628.021 155.063V150.506ZM641.257 145.341L634.601 152.025L627.945 145.189V140.632L634.601 147.316L641.257 140.632V145.341ZM634.601 130.909C636.065 130.916 637.486 131.404 638.647 132.299C639.808 133.194 640.645 134.447 641.03 135.866L634.601 142.303L628.172 135.866C628.542 134.433 629.373 133.163 630.536 132.254C631.698 131.344 633.127 130.845 634.601 130.834V130.909ZM627.945 166.988V160.152L632.786 165.013V170.444L627.945 166.988ZM636.416 170.463V165.013L641.257 160.152V166.969L636.416 170.463Z" fill="#A1A1AA"/>
<path d="M947.824 127.824H978.131L955.85 161.006H925.543L947.824 127.824Z" fill="#007AFF"/>
<path d="M949.152 164.081L940.521 176.933H972.266L994.547 143.752H971.118L957.467 164.081H949.152Z" fill="#312ECB"/>
<path d="M1016.13 136.482C1016.38 138.324 1016.46 139.537 1016.46 142.676V165.105C1016.46 167.908 1016.38 169.666 1016.13 171.298H1025.27C1025.02 169.54 1024.94 167.992 1024.94 165.105V142.676C1024.94 139.621 1025.02 138.198 1025.27 136.482H1016.13Z" fill="#E4E4E7"/>
<path d="M1038.63 171.298C1038.38 169.122 1038.3 167.364 1038.3 164.979V156.526C1040.08 153.597 1042.16 152.133 1044.49 152.133C1045.73 152.133 1046.69 152.551 1047.23 153.304C1047.72 154.016 1047.89 154.727 1047.89 156.401V164.979C1047.89 167.532 1047.81 169.289 1047.56 171.298H1056.2C1055.99 169.54 1055.86 167.448 1055.86 165.021V154.518C1055.86 151.212 1055.16 149.162 1053.5 147.488C1051.96 145.94 1049.68 145.144 1046.81 145.144C1043.41 145.144 1040.87 146.191 1038.26 148.701C1038.26 148.408 1038.3 147.781 1038.3 147.53V145.772H1030.03C1030.28 147.446 1030.37 149.203 1030.37 152.091V164.979C1030.37 167.574 1030.28 169.331 1030.03 171.298H1038.63Z" fill="#E4E4E7"/>
<path d="M1084.99 153.514C1083.62 147.948 1079.18 144.768 1072.78 144.768C1064.68 144.768 1059.45 150.124 1059.45 158.493C1059.45 162.594 1060.78 166.276 1063.19 168.662C1065.47 171.005 1068.88 172.26 1072.87 172.26C1077.68 172.26 1081.46 170.545 1083.54 167.448C1084.33 166.235 1084.83 165.105 1085.28 163.305L1077.64 162.092C1077.48 163.054 1077.27 163.473 1076.89 164.017C1076.06 165.188 1074.57 165.858 1072.95 165.858C1069.63 165.858 1067.51 162.929 1067.51 158.41C1067.51 153.806 1069.5 151.128 1072.87 151.128C1074.36 151.128 1075.52 151.631 1076.35 152.593C1076.89 153.221 1077.14 153.806 1077.52 155.062L1084.99 153.514Z" fill="#E4E4E7"/>
<path d="M1105.17 154.769C1102.18 154.853 1100.93 154.894 1099.31 155.062C1095.58 155.397 1092.79 156.275 1090.68 157.782C1088.68 159.163 1087.64 161.255 1087.64 163.891C1087.64 166.193 1088.43 168.201 1089.93 169.582C1091.59 171.131 1093.96 171.884 1097.11 171.884C1100.52 171.884 1102.84 171.172 1105.17 169.373V171.298H1113.23C1113.02 169.415 1112.94 167.908 1112.94 165.356V154.058C1112.94 150.291 1111.77 147.99 1109.11 146.525C1107.5 145.647 1104.51 145.061 1101.43 145.061C1097.4 145.061 1094.33 145.856 1092.09 147.446C1090.34 148.701 1089.43 150.04 1088.6 152.509L1096.53 153.806C1097.15 151.756 1098.57 150.877 1101.22 150.877C1103.97 150.877 1105.17 151.798 1105.17 153.806V154.769ZM1105.17 161.297C1105.17 162.552 1104.63 163.682 1103.67 164.519C1102.55 165.481 1100.68 166.109 1098.98 166.109C1096.82 166.109 1095.58 165.23 1095.58 163.724C1095.58 162.51 1096.49 161.464 1097.98 160.962C1099.69 160.418 1101.47 160.209 1105.17 160.125V161.297Z" fill="#E4E4E7"/>
<path d="M1126.23 171.298C1125.98 169.122 1125.9 167.364 1125.9 164.979V156.526C1127.69 153.597 1129.76 152.133 1132.09 152.133C1133.33 152.133 1134.29 152.551 1134.83 153.304C1135.33 154.016 1135.49 154.727 1135.49 156.401V164.979C1135.49 167.532 1135.41 169.289 1135.16 171.298H1143.8C1143.59 169.54 1143.47 167.448 1143.47 165.021V154.518C1143.47 151.212 1142.76 149.162 1141.1 147.488C1139.56 145.94 1137.28 145.144 1134.41 145.144C1131.01 145.144 1128.48 146.191 1125.86 148.701C1125.86 148.408 1125.9 147.781 1125.9 147.53V145.772H1117.64C1117.88 147.446 1117.97 149.203 1117.97 152.091V164.979C1117.97 167.574 1117.88 169.331 1117.64 171.298H1126.23Z" fill="#E4E4E7"/>
<path d="M1151.42 145.772H1149.92C1148.47 145.772 1147.43 145.688 1146.22 145.521V152.509C1147.43 152.342 1148.51 152.258 1149.84 152.258H1151.42V165.063C1151.42 167.908 1152 169.331 1153.57 170.545C1154.9 171.549 1156.86 172.009 1159.68 172.009C1161.92 172.009 1163.54 171.758 1165.41 171.172L1164.79 164.812C1163.75 165.356 1162.96 165.565 1161.88 165.565C1161.09 165.565 1160.43 165.398 1159.97 165.105C1159.43 164.728 1159.22 164.142 1159.22 162.971V152.258H1160.97C1162.46 152.258 1163.54 152.342 1164.79 152.509V145.563C1163.5 145.73 1162.55 145.772 1160.72 145.772H1159.22V144.893C1159.22 142.885 1159.35 140.876 1159.56 139.161H1151.08C1151.33 141.127 1151.42 142.801 1151.42 144.893V145.772Z" fill="#E4E4E7"/>
<path d="M1180.59 172.26C1188.86 172.26 1194.34 166.737 1194.34 158.41C1194.34 150.124 1189.02 144.81 1180.63 144.81C1172.24 144.81 1166.93 150.124 1166.93 158.493C1166.93 166.904 1172.24 172.26 1180.59 172.26ZM1180.67 151.087C1184.2 151.087 1186.32 153.848 1186.32 158.535C1186.32 163.18 1184.25 165.9 1180.63 165.9C1177.02 165.9 1174.86 163.096 1174.86 158.451C1174.86 153.848 1177.02 151.087 1180.67 151.087Z" fill="#E4E4E7"/>
<path d="M1197.61 162.845V171.298H1206V162.845H1197.61Z" fill="#E4E4E7"/>
</svg>
